<svg xmlns="http://www.w3.org/2000/svg" xmlns:xlink="http://www.w3.org/1999/xlink" style="margin:auto;background:#f1f2f300;display:block;z-index:1;position:relative" width="2000" height="993" preserveAspectRatio="xMidYMid" viewBox="0 0 2000 993">
<g transform="translate(1000,496.5) scale(-1,1) translate(-1000,-496.5)"><linearGradient id="lg-0.6306905254629169" x1="0" x2="1" y1="0" y2="0">
  <stop stop-color="#fef7e7" offset="0"></stop>
  <stop stop-color="#fef7e7" offset="1"></stop>
</linearGradient><path d="M 1374 497 C 1374 591 1267 772 1186 819 C 1105 866 929 807 848 760 C 767 713 642 591 642 497 C 642 403 743 239 824 192 C 905 145 1065 196 1146 243 C 1227 290 1374 403 1374 497" fill="url(#lg-0.6306905254629169)" opacity="0.28">
  <animate attributeName="d" dur="10s" repeatCount="indefinite" keyTimes="0;0.3333333333333333;0.6666666666666666;1" calcmod="spline" keySplines="0.3 0.1 0.7 0.9;0.3 0.1 0.7 0.9;0.3 0.1 0.7 0.9" begin="-4s" values="M 1374 497 C 1374 591 1267 772 1186 819 C 1105 866 929 807 848 760 C 767 713 642 591 642 497 C 642 403 743 239 824 192 C 905 145 1065 196 1146 243 C 1227 290 1374 403 1374 497;M 1429 497 C 1429 592 1250 739 1168 787 C 1086 835 924 820 841 773 C 758 726 583 592 583 497 C 583 402 738 233 820 185 C 902 137 1062 200 1144 248 C 1226 296 1429 402 1429 497;M 1399 497 C 1399 594 1240 717 1156 766 C 1072 815 930 811 846 763 C 762 715 631 594 631 497 C 631 400 766 284 850 236 C 934 188 1108 115 1192 163 C 1276 211 1399 400 1399 497;M 1374 497 C 1374 591 1267 772 1186 819 C 1105 866 929 807 848 760 C 767 713 642 591 642 497 C 642 403 743 239 824 192 C 905 145 1065 196 1146 243 C 1227 290 1374 403 1374 497"></animate>
</path><path d="M 1374 497 C 1374 592 1262 761 1180 808 C 1098 855 903 854 821 807 C 739 760 616 592 616 497 C 616 402 776 297 858 250 C 940 203 1057 209 1139 256 C 1221 303 1374 402 1374 497" fill="url(#lg-0.6306905254629169)" opacity="0.28">
  <animate attributeName="d" dur="10s" repeatCount="indefinite" keyTimes="0;0.3333333333333333;0.6666666666666666;1" calcmod="spline" keySplines="0.3 0.1 0.7 0.9;0.3 0.1 0.7 0.9;0.3 0.1 0.7 0.9" begin="-4s" values="M 1374 497 C 1374 592 1262 761 1180 808 C 1098 855 903 854 821 807 C 739 760 616 592 616 497 C 616 402 776 297 858 250 C 940 203 1057 209 1139 256 C 1221 303 1374 402 1374 497;M 1391 497 C 1391 591 1237 720 1156 767 C 1075 814 916 828 835 781 C 754 734 604 591 604 497 C 604 403 734 223 815 176 C 896 129 1056 212 1137 259 C 1218 306 1391 403 1391 497;M 1379 497 C 1379 595 1269 766 1184 815 C 1099 864 933 808 848 759 C 763 710 604 595 604 497 C 604 399 746 252 831 203 C 916 154 1109 111 1194 160 C 1279 209 1379 399 1379 497;M 1374 497 C 1374 592 1262 761 1180 808 C 1098 855 903 854 821 807 C 739 760 616 592 616 497 C 616 402 776 297 858 250 C 940 203 1057 209 1139 256 C 1221 303 1374 402 1374 497"></animate>
</path><path d="M 1422 497 C 1422 592 1264 763 1182 811 C 1100 859 937 795 855 747 C 773 699 576 592 576 497 C 576 402 744 243 826 195 C 908 147 1066 193 1148 241 C 1230 289 1422 402 1422 497" fill="url(#lg-0.6306905254629169)" opacity="0.28">
  <animate attributeName="d" dur="10s" repeatCount="indefinite" keyTimes="0;0.3333333333333333;0.6666666666666666;1" calcmod="spline" keySplines="0.3 0.1 0.7 0.9;0.3 0.1 0.7 0.9;0.3 0.1 0.7 0.9" begin="-4s" values="M 1422 497 C 1422 592 1264 763 1182 811 C 1100 859 937 795 855 747 C 773 699 576 592 576 497 C 576 402 744 243 826 195 C 908 147 1066 193 1148 241 C 1230 289 1422 402 1422 497;M 1360 497 C 1360 594 1237 714 1153 762 C 1069 810 899 866 815 818 C 731 770 554 594 554 497 C 554 400 730 223 814 175 C 898 127 1093 141 1177 189 C 1261 237 1360 400 1360 497;M 1411 497 C 1411 595 1257 746 1172 795 C 1087 844 939 798 854 749 C 769 700 557 595 557 497 C 557 399 743 248 828 199 C 913 150 1105 119 1190 168 C 1275 217 1411 399 1411 497;M 1422 497 C 1422 592 1264 763 1182 811 C 1100 859 937 795 855 747 C 773 699 576 592 576 497 C 576 402 744 243 826 195 C 908 147 1066 193 1148 241 C 1230 289 1422 402 1422 497"></animate>
</path><path d="M 1374 497 C 1374 593 1237 715 1154 763 C 1071 811 928 813 845 765 C 762 717 637 593 637 497 C 637 401 745 246 828 198 C 911 150 1085 157 1168 205 C 1251 253 1374 401 1374 497" fill="url(#lg-0.6306905254629169)" opacity="0.28">
  <animate attributeName="d" dur="10s" repeatCount="indefinite" keyTimes="0;0.3333333333333333;0.6666666666666666;1" calcmod="spline" keySplines="0.3 0.1 0.7 0.9;0.3 0.1 0.7 0.9;0.3 0.1 0.7 0.9" begin="-4s" values="M 1374 497 C 1374 593 1237 715 1154 763 C 1071 811 928 813 845 765 C 762 717 637 593 637 497 C 637 401 745 246 828 198 C 911 150 1085 157 1168 205 C 1251 253 1374 401 1374 497;M 1381 497 C 1381 593 1255 747 1172 795 C 1089 843 904 854 821 806 C 738 758 625 593 625 497 C 625 401 758 270 841 222 C 924 174 1099 133 1182 181 C 1265 229 1381 401 1381 497;M 1393 497 C 1393 591 1264 767 1183 814 C 1102 861 926 813 845 766 C 764 719 601 591 601 497 C 601 403 744 240 825 193 C 906 146 1075 180 1156 227 C 1237 274 1393 403 1393 497;M 1374 497 C 1374 593 1237 715 1154 763 C 1071 811 928 813 845 765 C 762 717 637 593 637 497 C 637 401 745 246 828 198 C 911 150 1085 157 1168 205 C 1251 253 1374 401 1374 497"></animate>
</path><path d="M 1373 497 C 1373 597 1256 740 1170 790 C 1084 840 895 878 809 828 C 723 778 600 597 600 497 C 600 397 759 277 845 227 C 931 177 1065 185 1151 235 C 1237 285 1373 397 1373 497" fill="url(#lg-0.6306905254629169)" opacity="0.28">
  <animate attributeName="d" dur="10s" repeatCount="indefinite" keyTimes="0;0.3333333333333333;0.6666666666666666;1" calcmod="spline" keySplines="0.3 0.1 0.7 0.9;0.3 0.1 0.7 0.9;0.3 0.1 0.7 0.9" begin="-4s" values="M 1373 497 C 1373 597 1256 740 1170 790 C 1084 840 895 878 809 828 C 723 778 600 597 600 497 C 600 397 759 277 845 227 C 931 177 1065 185 1151 235 C 1237 285 1373 397 1373 497;M 1409 497 C 1409 593 1251 739 1168 787 C 1085 835 931 808 848 760 C 765 712 553 593 553 497 C 553 401 757 267 840 219 C 923 171 1062 198 1145 246 C 1228 294 1409 401 1409 497;M 1381 497 C 1381 596 1246 724 1160 774 C 1074 824 931 815 845 765 C 759 715 546 596 546 497 C 546 398 743 251 829 201 C 915 151 1089 143 1175 193 C 1261 243 1381 398 1381 497;M 1373 497 C 1373 597 1256 740 1170 790 C 1084 840 895 878 809 828 C 723 778 600 597 600 497 C 600 397 759 277 845 227 C 931 177 1065 185 1151 235 C 1237 285 1373 397 1373 497"></animate>
</path></g>
</svg>