<svg width="397.56" height="84.721" viewBox="0 0 397.56 84.721" xmlns="http://www.w3.org/2000/svg">
	<g id="svgGroup" stroke-linecap="round" fill-rule="evenodd" font-size="9pt" stroke="#000" stroke-width="0.25mm" fill="none" style="stroke:#000;stroke-width:0.25mm;fill:none">
		<path d="M 0.96 62.52 L 9.12 24 L 26.4 24 L 17.76 64.8 Q 17.4 66.24 17.4 67.8 A 11.461 11.461 0 0 0 17.537 69.661 Q 18.103 73.08 21 73.08 A 7.14 7.14 0 0 0 26.204 70.863 A 10.012 10.012 0 0 0 26.76 70.26 A 15.858 15.858 0 0 0 28.675 67.392 Q 29.441 65.946 30.064 64.185 A 31.781 31.781 0 0 0 30.6 62.52 L 38.76 24 L 56.04 24 L 47.4 64.8 Q 46.955 67.027 46.84 68.328 A 9.153 9.153 0 0 0 46.8 69.12 Q 46.8 72.278 49.395 72.918 A 6.22 6.22 0 0 0 50.88 73.08 Q 55.174 73.08 58.995 68.869 A 25.151 25.151 0 0 0 61.14 66.12 A 53.488 53.488 0 0 0 65.999 57.19 A 69.902 69.902 0 0 0 68.76 49.56 Q 70.9 42.428 71.45 36.753 A 38.954 38.954 0 0 0 71.64 33 A 0.94 0.94 0 0 1 71.35 33.375 Q 70.949 33.703 70.08 33.9 A 14.418 14.418 0 0 1 69.141 34.083 Q 68.678 34.156 68.27 34.184 A 7.002 7.002 0 0 1 67.8 34.2 A 3.387 3.387 0 0 1 65.12 32.981 A 4.868 4.868 0 0 1 64.62 32.28 Q 63.48 30.36 63.48 28.08 A 7.256 7.256 0 0 1 63.799 25.88 A 5.868 5.868 0 0 1 65.34 23.4 A 5.835 5.835 0 0 1 67.573 22.08 Q 68.486 21.773 69.603 21.662 A 13.378 13.378 0 0 1 70.92 21.6 A 8.345 8.345 0 0 1 73.235 21.902 A 5.797 5.797 0 0 1 76.68 24.54 Q 78.283 27.158 78.459 31.062 A 21.8 21.8 0 0 1 78.48 32.04 A 71.651 71.651 0 0 1 77.237 45.029 A 93.529 93.529 0 0 1 74.76 55.14 A 58.98 58.98 0 0 1 68.947 68.456 A 50.626 50.626 0 0 1 63.36 76.08 A 25.576 25.576 0 0 1 54.451 82.693 A 25.172 25.172 0 0 1 44.28 84.72 A 22.468 22.468 0 0 1 40.213 84.373 Q 37.868 83.941 35.983 82.972 A 12.582 12.582 0 0 1 34.68 82.2 A 11.027 11.027 0 0 1 30.479 76.724 A 15.214 15.214 0 0 1 29.88 74.64 A 26.92 26.92 0 0 1 25.206 80.063 A 18.275 18.275 0 0 1 12.84 84.72 A 14.963 14.963 0 0 1 8.602 84.148 A 11.561 11.561 0 0 1 3.54 81.12 Q 0.656 78.187 0.122 72.865 A 25.493 25.493 0 0 1 0 70.32 A 24.574 24.574 0 0 1 0.094 68.269 Q 0.286 65.983 0.874 62.955 A 79.254 79.254 0 0 1 0.96 62.52 Z" id="0" vector-effect="non-scaling-stroke"/>
		<path d="M 126.36 62.52 L 130.44 62.52 A 61.722 61.722 0 0 1 122.444 73.251 Q 116.76 79.255 110.176 82.115 A 31.613 31.613 0 0 1 97.44 84.72 A 27.423 27.423 0 0 1 91.921 84.199 Q 88.591 83.514 86.032 81.931 A 15.047 15.047 0 0 1 83.64 80.1 A 14.155 14.155 0 0 1 80.028 74.4 Q 78.72 70.714 78.72 65.64 Q 78.72 57.36 81.96 47.4 Q 85.2 37.44 92.52 30.18 A 24.769 24.769 0 0 1 108.7 23.007 A 33.144 33.144 0 0 1 111.12 22.92 Q 122.515 22.92 124.073 31.505 A 16.447 16.447 0 0 1 124.32 34.44 Q 124.32 41.16 120.48 46.8 A 28.229 28.229 0 0 1 110.675 55.644 A 32.873 32.873 0 0 1 110.28 55.86 Q 103.92 59.28 96.72 59.76 A 259.353 259.353 0 0 0 96.627 61.22 Q 96.48 63.623 96.48 64.56 A 26.528 26.528 0 0 0 96.604 67.225 Q 96.873 69.882 97.73 71.45 A 4.984 4.984 0 0 0 98.52 72.54 A 6.08 6.08 0 0 0 100.763 73.966 Q 101.733 74.335 102.945 74.502 A 15.976 15.976 0 0 0 105.12 74.64 A 23.376 23.376 0 0 0 110.611 74.024 A 17.931 17.931 0 0 0 116.22 71.64 A 36.521 36.521 0 0 0 119.812 68.951 Q 121.554 67.485 123.409 65.634 A 82.389 82.389 0 0 0 126.36 62.52 Z M 97.68 54 A 15.279 15.279 0 0 0 104.586 51.886 A 19.144 19.144 0 0 0 106.14 50.88 Q 110.16 48 112.62 43.56 Q 115.08 39.12 115.08 34.2 Q 115.08 30.934 113.758 29.836 A 2.538 2.538 0 0 0 112.08 29.28 A 5.751 5.751 0 0 0 108.865 30.343 Q 106.812 31.712 104.801 34.843 A 33.24 33.24 0 0 0 103.62 36.84 A 54.267 54.267 0 0 0 99.034 48.199 A 66.268 66.268 0 0 0 97.68 54 Z" id="1" vector-effect="non-scaling-stroke"/>
		<path d="M 126.36 62.52 L 139.2 2.4 L 156.96 0 L 143.16 64.8 A 14.406 14.406 0 0 0 142.703 67.759 A 16.698 16.698 0 0 0 142.68 68.64 A 7.962 7.962 0 0 0 142.765 69.849 Q 142.861 70.469 143.064 70.96 A 2.971 2.971 0 0 0 143.82 72.06 A 3.311 3.311 0 0 0 144.859 72.672 Q 145.823 73.039 147.273 73.076 A 12.947 12.947 0 0 0 147.6 73.08 Q 151.08 73.08 154.08 70.14 A 15.656 15.656 0 0 0 157.411 65.275 A 20.246 20.246 0 0 0 158.4 62.52 L 163.44 62.52 Q 159 75.48 152.04 80.1 A 30.597 30.597 0 0 1 146.297 83.134 A 21.959 21.959 0 0 1 138.24 84.72 A 14.963 14.963 0 0 1 134.002 84.148 A 11.561 11.561 0 0 1 128.94 81.12 Q 126.056 78.187 125.522 72.865 A 25.493 25.493 0 0 1 125.4 70.32 A 24.574 24.574 0 0 1 125.494 68.269 Q 125.686 65.983 126.274 62.955 A 79.254 79.254 0 0 1 126.36 62.52 Z" id="2" vector-effect="non-scaling-stroke"/>
		<path d="M 204.48 62.52 L 208.56 62.52 A 61.722 61.722 0 0 1 200.564 73.251 Q 194.88 79.255 188.296 82.115 A 31.613 31.613 0 0 1 175.56 84.72 A 27.423 27.423 0 0 1 170.041 84.199 Q 166.711 83.514 164.152 81.931 A 15.047 15.047 0 0 1 161.76 80.1 A 14.155 14.155 0 0 1 158.148 74.4 Q 156.84 70.714 156.84 65.64 Q 156.84 57.36 160.14 47.4 Q 163.44 37.44 170.7 30.18 Q 177.96 22.92 189.12 22.92 A 26.326 26.326 0 0 1 192.653 23.14 Q 196.778 23.701 199.011 25.688 A 7.546 7.546 0 0 1 199.38 26.04 A 10.591 10.591 0 0 1 202.398 32.858 A 14.186 14.186 0 0 1 202.44 33.96 A 15.819 15.819 0 0 1 202.264 36.398 Q 201.878 38.873 200.64 40.44 A 6.266 6.266 0 0 1 198.985 41.937 A 5.48 5.48 0 0 1 196.08 42.72 Q 194.154 42.72 192.12 41.436 A 11.572 11.572 0 0 1 191.88 41.28 Q 193.32 37.32 193.32 34.2 A 10.048 10.048 0 0 0 193.23 32.807 Q 193.044 31.487 192.48 30.6 A 2.7 2.7 0 0 0 190.537 29.323 A 3.76 3.76 0 0 0 189.96 29.28 Q 186.36 29.28 182.76 35.16 Q 179.386 40.672 177.171 48.398 A 76.598 76.598 0 0 0 176.88 49.44 Q 174.841 56.954 174.625 63.124 A 41.221 41.221 0 0 0 174.6 64.56 A 26.528 26.528 0 0 0 174.724 67.225 Q 174.993 69.882 175.85 71.45 A 4.984 4.984 0 0 0 176.64 72.54 A 6.08 6.08 0 0 0 178.883 73.966 Q 179.853 74.335 181.065 74.502 A 15.976 15.976 0 0 0 183.24 74.64 A 23.376 23.376 0 0 0 188.731 74.024 A 17.931 17.931 0 0 0 194.34 71.64 A 36.521 36.521 0 0 0 197.932 68.951 Q 199.674 67.485 201.529 65.634 A 82.389 82.389 0 0 0 204.48 62.52 Z" id="3" vector-effect="non-scaling-stroke"/>
		<path d="M 251.04 42.12 L 251.04 42.24 Q 251.388 42.356 252.295 42.36 A 14.86 14.86 0 0 0 252.36 42.36 A 18.163 18.163 0 0 0 255.776 42.013 Q 257.426 41.697 259.242 41.091 A 37.065 37.065 0 0 0 261.48 40.26 A 46.667 46.667 0 0 0 269.094 36.342 A 41.97 41.97 0 0 0 270.84 35.16 L 271.92 38.4 Q 268.44 42.12 262.86 44.7 A 45.805 45.805 0 0 1 253.119 47.902 A 52.697 52.697 0 0 1 250.68 48.36 A 63.397 63.397 0 0 1 249.046 58.291 A 47.413 47.413 0 0 1 245.76 67.44 A 37.743 37.743 0 0 1 241.547 74.273 A 28.875 28.875 0 0 1 235.56 80.04 Q 229.32 84.48 222 84.48 A 28.056 28.056 0 0 1 216.335 83.941 Q 211.346 82.913 207.96 79.92 A 13.997 13.997 0 0 1 204.05 73.927 Q 203.24 71.616 202.955 68.767 A 32.655 32.655 0 0 1 202.8 65.52 A 46.738 46.738 0 0 1 203.538 57.474 Q 204.375 52.691 206.16 47.4 Q 209.52 37.44 216.96 30.18 A 25.271 25.271 0 0 1 233.599 22.984 A 33.454 33.454 0 0 1 235.68 22.92 Q 249.535 22.92 250.893 38.543 A 41.386 41.386 0 0 1 251.04 42.12 Z M 226.8 73.68 A 5.641 5.641 0 0 0 229.455 72.979 Q 230.328 72.518 231.202 71.753 A 14.448 14.448 0 0 0 232.56 70.38 Q 234.894 67.706 236.755 63.456 A 44.415 44.415 0 0 0 237.6 61.38 A 53.602 53.602 0 0 0 239.831 53.763 A 66.578 66.578 0 0 0 240.72 48.72 A 3.701 3.701 0 0 1 237.899 46.32 Q 237.48 45.233 237.48 43.68 A 9.981 9.981 0 0 1 237.743 41.303 Q 238.468 38.346 241.2 37.2 Q 240.96 33.24 240 31.74 A 3.053 3.053 0 0 0 238.267 30.46 Q 237.559 30.24 236.64 30.24 Q 232.68 30.24 228.96 36 A 44.321 44.321 0 0 0 225.414 42.763 A 59.9 59.9 0 0 0 222.96 49.8 Q 221.17 56.113 220.785 61.242 A 36.373 36.373 0 0 0 220.68 63.96 Q 220.68 69.657 221.971 71.656 A 3.605 3.605 0 0 0 222 71.7 A 4.049 4.049 0 0 0 224.012 73.245 Q 224.735 73.517 225.643 73.619 A 10.382 10.382 0 0 0 226.8 73.68 Z" id="4" vector-effect="non-scaling-stroke"/>
		<path d="M 307.68 45.48 L 299.52 84 L 282.24 84 L 291 42.6 Q 291.36 41.16 291.36 39.6 A 11.461 11.461 0 0 0 291.223 37.739 Q 290.657 34.32 287.76 34.32 A 6.839 6.839 0 0 0 283.059 36.188 A 10.171 10.171 0 0 0 281.94 37.38 A 18.064 18.064 0 0 0 279.889 40.622 Q 278.816 42.763 278.04 45.48 L 269.88 84 L 252.6 84 L 265.32 24 L 282.6 24 L 281.28 30.24 A 21.554 21.554 0 0 1 286.871 25.686 A 18.35 18.35 0 0 1 295.92 23.4 A 15.947 15.947 0 0 1 300.75 24.076 Q 305.78 25.672 307.607 31.041 A 17.81 17.81 0 0 1 308.28 33.72 A 27.328 27.328 0 0 1 312.715 28.369 A 17.587 17.587 0 0 1 324.96 23.52 A 18.043 18.043 0 0 1 329.033 23.954 Q 332.374 24.728 334.68 26.88 A 10.513 10.513 0 0 1 337.476 31.392 Q 338.029 33.08 338.202 35.135 A 23.23 23.23 0 0 1 338.28 37.08 Q 338.28 40.56 337.44 44.82 A 138.731 138.731 0 0 1 336.709 48.277 Q 336.362 49.826 335.945 51.557 A 287.814 287.814 0 0 1 335.04 55.2 A 210.508 210.508 0 0 0 333.398 62.017 A 192.798 192.798 0 0 0 333.3 62.46 A 48.616 48.616 0 0 0 332.906 64.43 Q 332.574 66.299 332.528 67.62 A 11.885 11.885 0 0 0 332.52 68.04 Q 332.52 69.73 333.056 70.885 A 4.098 4.098 0 0 0 333.6 71.76 A 3.176 3.176 0 0 0 334.899 72.685 Q 335.441 72.904 336.127 73.002 A 8.494 8.494 0 0 0 337.32 73.08 Q 340.92 73.08 343.08 70.5 A 16.795 16.795 0 0 0 344.43 68.612 Q 345.706 66.567 346.982 63.538 A 60.469 60.469 0 0 0 347.4 62.52 L 352.44 62.52 Q 348 75.72 342.18 80.22 A 23.401 23.401 0 0 1 337.195 83.216 A 17.619 17.619 0 0 1 330.12 84.72 Q 325.333 84.72 322.214 83.052 A 10.002 10.002 0 0 1 319.38 80.82 A 13.689 13.689 0 0 1 316.044 72.915 A 18.04 18.04 0 0 1 315.96 71.16 A 25.408 25.408 0 0 1 316.092 68.652 Q 316.241 67.149 316.56 65.46 Q 317.16 62.28 317.82 59.28 Q 318.46 56.371 318.705 55.493 A 9.002 9.002 0 0 1 318.72 55.44 Q 319.68 51.24 320.52 47.16 A 56.039 56.039 0 0 0 320.963 44.762 Q 321.334 42.457 321.358 40.793 A 15.771 15.771 0 0 0 321.36 40.56 A 12.841 12.841 0 0 0 321.195 38.403 Q 320.516 34.44 317.04 34.44 Q 313.92 34.44 311.52 37.5 Q 309.399 40.204 308.028 44.362 A 34.574 34.574 0 0 0 307.68 45.48 Z" id="5" vector-effect="non-scaling-stroke"/>
		<path d="M 393.48 62.52 L 397.56 62.52 A 61.722 61.722 0 0 1 389.564 73.251 Q 383.88 79.255 377.296 82.115 A 31.613 31.613 0 0 1 364.56 84.72 A 27.423 27.423 0 0 1 359.041 84.199 Q 355.711 83.514 353.152 81.931 A 15.047 15.047 0 0 1 350.76 80.1 A 14.155 14.155 0 0 1 347.148 74.4 Q 345.84 70.714 345.84 65.64 Q 345.84 57.36 349.08 47.4 Q 352.32 37.44 359.64 30.18 A 24.769 24.769 0 0 1 375.82 23.007 A 33.144 33.144 0 0 1 378.24 22.92 Q 389.635 22.92 391.193 31.505 A 16.447 16.447 0 0 1 391.44 34.44 Q 391.44 41.16 387.6 46.8 A 28.229 28.229 0 0 1 377.795 55.644 A 32.873 32.873 0 0 1 377.4 55.86 Q 371.04 59.28 363.84 59.76 A 259.353 259.353 0 0 0 363.747 61.22 Q 363.6 63.623 363.6 64.56 A 26.528 26.528 0 0 0 363.724 67.225 Q 363.993 69.882 364.85 71.45 A 4.984 4.984 0 0 0 365.64 72.54 A 6.08 6.08 0 0 0 367.883 73.966 Q 368.853 74.335 370.065 74.502 A 15.976 15.976 0 0 0 372.24 74.64 A 23.376 23.376 0 0 0 377.731 74.024 A 17.931 17.931 0 0 0 383.34 71.64 A 36.521 36.521 0 0 0 386.932 68.951 Q 388.674 67.485 390.529 65.634 A 82.389 82.389 0 0 0 393.48 62.52 Z M 364.8 54 A 15.279 15.279 0 0 0 371.706 51.886 A 19.144 19.144 0 0 0 373.26 50.88 Q 377.28 48 379.74 43.56 Q 382.2 39.12 382.2 34.2 Q 382.2 30.934 380.878 29.836 A 2.538 2.538 0 0 0 379.2 29.28 A 5.751 5.751 0 0 0 375.985 30.343 Q 373.932 31.712 371.921 34.843 A 33.24 33.24 0 0 0 370.74 36.84 A 54.267 54.267 0 0 0 366.154 48.199 A 66.268 66.268 0 0 0 364.8 54 Z" id="6" vector-effect="non-scaling-stroke"/>
	</g>
</svg>